<svg aria-hidden="true" style="position: absolute; width: 0; height: 0; overflow: hidden;" version="1.1" xmlns="http://www.w3.org/2000/svg" xmlns:xlink="http://www.w3.org/1999/xlink">
<defs>

<symbol id="telegram" width="24" height="24" fill="none" xmlns="http://www.w3.org/2000/svg">
<path d="M24 0L0 13.5l7.67 2.84L19.5 5.25l-8.998 12.14.007.002-.009-.002V24l4.301-5.018L20.251 21 24 0z" fill="#fff"/>
</symbol>

<symbol id="phone-form"  viewBox="0 0 16 12">
<path d="M11.996 9.1226l-1.8381-.21a1.4406 1.4406 0 00-1.1869.4126l-1.3316 1.3316c-2.048-1.0421-3.7269-2.7138-4.769-4.7691l1.3388-1.3388a1.4406 1.4406 0 00.4125-1.1868L4.412 1.5383A1.4484 1.4484 0 002.9717.2574h-1.252C.902.2574.2218.9377.2725 1.7554.656 7.9358 5.5987 12.8713 11.7717 13.2549c.8177.0506 1.498-.6296 1.498-1.4474v-1.2519c.0072-.731-.5428-1.3461-1.2737-1.433z" />
</symbol>

<symbol id="mail-form"  viewBox="0 0 16 12">
<path d="M14 0H2C1.175 0 .5075.675.5075 1.5L.5 10.5c0 .825.675 1.5 1.5 1.5h12c.825 0 1.5-.675 1.5-1.5v-9C15.5.675 14.825 0 14 0zm-.3 3.1875l-5.3025 3.315c-.24.15-.555.15-.795 0L2.3 3.1875c-.1875-.12-.3-.3225-.3-.54 0-.5025.5475-.8025.975-.54L8 5.25l5.025-3.1425c.4275-.2625.975.0375.975.54 0 .2175-.1125.42-.3.54z"/>
</symbol>

<symbol id="license-submit2-form" fill="none" viewBox="0 0 16 15">
<rect width="16" height="15" rx="2" fill="#2196F3"/>
<path d="M3.957 7.7517l-.0687-.0657-.069.0654-.888.8412-.0764.0723.076.0726 3.4958 3.3349.069.0658.069-.0658 7.5043-7.1589.0759-.0723-.0759-.0724-.8817-.8412-.069-.0658-.069.0658-6.5535 6.2459L3.957 7.7517z" fill="#fff" stroke="#fff" stroke-width=".2"/>
</symbol>

<symbol id="close-form" width="11" height="11" viewBox="0 0 11 11" >
<path d="M11 1.108L9.892 0 5.5 4.392 1.108 0 0 1.108 4.392 5.5 0 9.892 1.108 11 5.5 6.608 9.892 11 11 9.892 6.608 5.5 11 1.108z" />
</symbol>

<symbol id="person-ico"  width="12" height="12" viewBox="0 0 12 12">
<path d="M6 6c1.6575 0 3-1.3425 3-3S7.6575 0 6 0 3 1.3425 3 3s1.3425 3 3 3zm0 1.5c-2.0025 0-6 1.005-6 3v.75c0 .4125.3375.75.75.75h10.5c.4125 0 .75-.3375.75-.75v-.75c0-1.995-3.9975-3-6-3z" />
</symbol>

<symbol id="icon-twitter" viewBox="0 0 32 32">
<path  d="M32 6.078c-1.19 0.522-2.458 0.868-3.78 1.036 1.36-0.812 2.398-2.088 2.886-3.626-1.268 0.756-2.668 1.29-4.16 1.588-1.204-1.282-2.92-2.076-4.792-2.076-3.632 0-6.556 2.948-6.556 6.562 0 0.52 0.044 1.020 0.152 1.496-5.454-0.266-10.28-2.88-13.522-6.862-0.566 0.982-0.898 2.106-0.898 3.316 0 2.272 1.17 4.286 2.914 5.452-1.054-0.020-2.088-0.326-2.964-0.808v0.072c0 3.188 2.274 5.836 5.256 6.446-0.534 0.146-1.116 0.216-1.72 0.216-0.42 0-0.844-0.024-1.242-0.112 0.85 2.598 3.262 4.508 6.13 4.57-2.214 1.744-5.044 2.798-8.12 2.798-0.005 0-0.010 0-0.015 0h0.001c-0.538 0-1.054-0.024-1.57-0.090 2.906 1.874 6.35 2.944 10.064 2.944 12.072 0 18.672-10 18.672-18.668 0-0.29-0.010-0.57-0.024-0.848 1.302-0.924 2.396-2.078 3.288-3.406z"></path>
</symbol>

<symbol id="icon-facebook" viewBox="0 0 32 32">
<path  d="M20.529 5.313h2.921v-5.088c-0.504-0.069-2.237-0.225-4.256-0.225-4.212 0-7.097 2.649-7.097 7.519v4.481h-4.648v5.688h4.648v14.312h5.699v-14.311h4.46l0.708-5.688h-5.169v-3.919c0.001-1.644 0.444-2.769 2.735-2.769z"></path>
</symbol>

<symbol id="icon-linkedin" viewBox="0 0 32 32">
<path  d="M31.992 32v-0.001h0.008v-11.736c0-5.741-1.236-10.164-7.948-10.164-3.227 0-5.392 1.771-6.276 3.449h-0.093v-2.913h-6.364v21.364h6.627v-10.579c0-2.785 0.528-5.479 3.977-5.479 3.399 0 3.449 3.179 3.449 5.657v10.401h6.62zM0.528 10.636h6.635v21.364h-6.635v-21.364zM3.843 0c-2.121 0-3.843 1.721-3.843 3.843s1.721 3.879 3.843 3.879c2.121 0 3.843-1.757 3.843-3.879-0.001-2.121-1.723-3.843-3.843-3.843z"></path>
</symbol>

<symbol id="icon-instagram" viewBox="0 0 32 32">
<path  d="M31.969 9.408c-0.075-1.7-0.35-2.869-0.744-3.882-0.406-1.075-1.032-2.038-1.851-2.838-0.78-0.792-1.724-1.419-2.778-1.826l-0.054-0.018c-1.019-0.394-2.182-0.669-3.882-0.744-1.713-0.081-2.257-0.1-6.601-0.1s-4.888 0.019-6.595 0.094c-1.7 0.075-2.869 0.35-3.882 0.744-1.075 0.406-2.038 1.031-2.838 1.85-0.792 0.78-1.419 1.724-1.826 2.778l-0.018 0.054c-0.394 1.019-0.669 2.181-0.744 3.882-0.081 1.713-0.1 2.257-0.1 6.602s0.019 4.888 0.094 6.595c0.075 1.7 0.35 2.869 0.744 3.882 0.427 1.11 1.056 2.057 1.849 2.837l0.001 0.001c0.78 0.792 1.724 1.419 2.778 1.826l0.054 0.018c1.019 0.394 2.182 0.669 3.882 0.744 1.706 0.075 2.25 0.094 6.595 0.094s4.888-0.019 6.595-0.094c1.7-0.075 2.869-0.35 3.882-0.744 2.157-0.85 3.832-2.525 4.663-4.627l0.019-0.055c0.394-1.019 0.669-2.182 0.744-3.882 0.075-1.707 0.094-2.251 0.094-6.595s-0.006-4.888-0.081-6.595zM29.087 22.473c-0.069 1.563-0.331 2.407-0.55 2.969-0.551 1.4-1.639 2.487-3.002 3.026l-0.036 0.013c-0.563 0.219-1.413 0.481-2.969 0.55-1.688 0.075-2.194 0.094-6.464 0.094s-4.782-0.019-6.464-0.094c-1.563-0.069-2.407-0.331-2.969-0.55-0.694-0.256-1.325-0.663-1.838-1.194-0.517-0.504-0.923-1.117-1.183-1.804l-0.011-0.034c-0.219-0.563-0.481-1.413-0.55-2.969-0.075-1.688-0.094-2.194-0.094-6.464s0.019-4.782 0.094-6.464c0.069-1.563 0.331-2.407 0.55-2.969 0.256-0.694 0.663-1.325 1.2-1.838 0.504-0.517 1.117-0.923 1.804-1.183l0.034-0.011c0.563-0.219 1.413-0.481 2.969-0.55 1.688-0.075 2.194-0.094 6.464-0.094 4.276 0 4.782 0.019 6.464 0.094 1.563 0.069 2.407 0.331 2.969 0.55 0.694 0.256 1.325 0.662 1.838 1.194 0.531 0.519 0.938 1.144 1.194 1.838 0.219 0.563 0.481 1.413 0.55 2.969 0.075 1.688 0.094 2.194 0.094 6.464s-0.019 4.77-0.094 6.458z"></path>
<path  d="M16.059 7.783c-4.538 0-8.22 3.682-8.22 8.22s3.682 8.22 8.22 8.22c4.539 0 8.22-3.682 8.22-8.22s-3.682-8.22-8.22-8.22zM16.059 21.335c-2.944 0-5.332-2.388-5.332-5.332s2.388-5.332 5.332-5.332c2.944 0 5.332 2.388 5.332 5.332s-2.388 5.332-5.332 5.332zM26.524 7.458c0 1.060-0.859 1.919-1.919 1.919s-1.919-0.859-1.919-1.919c0-1.060 0.859-1.919 1.919-1.919s1.919 0.859 1.919 1.919z"></path>
</symbol>

<symbol id="icon-smartphone" width="20px" height="18px" viewBox="0 0 32 32">
<path  d="M23 0h-14c-1.654 0-3 1.346-3 3v26c0 1.654 1.346 3 3 3h14c1.654 0 3-1.346 3-3v-26c0-1.654-1.346-3-3-3zM9 2h14c0.552 0 1 0.448 1 1v21h-16v-21c0-0.552 0.448-1 1-1zM23 30h-14c-0.552-0-1-0.448-1-1v-3h16v3c0 0.552-0.448 1-1 1z"></path>
<path  d="M10.707 27.478c0.391 0.365 0.391 0.956 0 1.321s-1.024 0.365-1.414 0c-0.391-0.365-0.391-0.956 0-1.321s1.024-0.365 1.414 0z"></path>
</symbol>

<symbol id="icon-mail-ico" width="22px" height="16px" viewBox="0 0 32 32">
<path  d="M29 4h-26c-1.654 0-3 1.346-3 3v18c0 1.654 1.346 3 3 3h26c1.654 0 3-1.346 3-3v-18c0-1.654-1.346-3-3-3zM29 6c0.138 0 0.27 0.029 0.39 0.080l-0.006-0.002-13.383 11.599-13.383-11.599c0.113-0.049 0.245-0.077 0.383-0.077h26zM29 26h-26c-0.552-0-1-0.448-1-1v-16.81l13.345 11.566c0.174 0.152 0.403 0.244 0.654 0.244 0 0 0.001 0 0.001 0h-0c0 0 0.001 0 0.001 0 0.251 0 0.48-0.092 0.655-0.245l-0.001 0.001 13.345-11.566v16.81c0 0.552-0.448 1-1 1z"></path>
</symbol>

<symbol id="icon-logo-6" viewBox="0 0 32 32">
<path  d="M16.086 15.408c-0.15-0.219-0.222-0.479-0.205-0.74v-1.072c0-0.329 0.068-0.579 0.204-0.749s0.37-0.256 0.701-0.255c0.311 0 0.532 0.073 0.663 0.218 0.142 0.186 0.212 0.413 0.196 0.641v0.252h-0.557v-0.255c0-0.010 0-0.022 0-0.034 0-0.076-0.006-0.151-0.018-0.224l0.001 0.008c-0.009-0.059-0.038-0.111-0.079-0.148l-0-0c-0.049-0.037-0.111-0.059-0.178-0.059-0.008 0-0.016 0-0.024 0.001l0.001-0c-0.076-0.005-0.152 0.016-0.212 0.061-0.049 0.044-0.081 0.101-0.092 0.164-0.014 0.073-0.022 0.158-0.022 0.244 0 0.008 0 0.015 0 0.022v-0.001 1.301c-0.001 0.015-0.002 0.032-0.002 0.050 0 0.115 0.027 0.224 0.075 0.32l-0.002-0.004c0.028 0.039 0.066 0.069 0.109 0.088l0.002 0.001c0.032 0.014 0.070 0.023 0.11 0.023 0.012 0 0.023-0.001 0.035-0.002l-0.001 0c0.071 0.006 0.142-0.016 0.197-0.059 0.044-0.041 0.074-0.095 0.083-0.157l0-0.001c0.011-0.070 0.017-0.151 0.017-0.234 0-0.009-0-0.019-0-0.028l0 0.001v-0.264h0.557v0.241c0.016 0.239-0.052 0.476-0.192 0.674-0.128 0.159-0.346 0.239-0.666 0.239s-0.562-0.085-0.7-0.262zM18.404 15.419c-0.141-0.167-0.211-0.41-0.211-0.732v-1.128c0-0.319 0.070-0.56 0.211-0.723s0.376-0.245 0.705-0.244c0.327 0 0.561 0.081 0.702 0.244s0.212 0.405 0.212 0.723v1.128c0 0.319-0.071 0.563-0.214 0.731s-0.376 0.252-0.699 0.252c-0.324 0-0.564-0.085-0.705-0.251zM19.368 15.148c0.043-0.087 0.068-0.188 0.068-0.296 0-0.013-0-0.026-0.001-0.039l0 0.002v-1.381c0.001-0.011 0.001-0.024 0.001-0.037 0-0.105-0.025-0.205-0.068-0.294l0.002 0.004c-0.029-0.040-0.067-0.070-0.112-0.089l-0.002-0.001c-0.032-0.014-0.069-0.022-0.109-0.022-0.013 0-0.027 0.001-0.040 0.003l0.002-0c-0.011-0.002-0.024-0.002-0.038-0.002-0.040 0-0.077 0.008-0.111 0.023l0.002-0.001c-0.047 0.020-0.085 0.050-0.114 0.089l-0.001 0.001c-0.043 0.084-0.068 0.184-0.068 0.289 0 0.014 0 0.027 0.001 0.040l-0-0.002v1.388c-0.001 0.012-0.001 0.026-0.001 0.040 0 0.107 0.025 0.208 0.070 0.298l-0.002-0.004c0.032 0.035 0.071 0.063 0.115 0.082l0.002 0.001c0.045 0.019 0.094 0.029 0.143 0.029s0.098-0.010 0.143-0.029c0.046-0.020 0.085-0.048 0.117-0.082l0-0v-0.007zM20.692 12.624h0.599l0.451 2.081 0.461-2.081h0.583l0.059 3.004h-0.431l-0.046-2.088-0.445 2.088h-0.346l-0.461-2.095-0.043 2.095h-0.436l0.054-3.004zM23.517 12.624h0.933c0.538 0 0.807 0.284 0.807 0.853 0 0.545-0.283 0.817-0.849 0.816h-0.318v1.335h-0.576l0.003-3.004zM24.314 13.908c0.057 0.007 0.115 0.002 0.169-0.014 0.057-0.017 0.106-0.045 0.148-0.081l-0.001 0c0.066-0.101 0.095-0.221 0.083-0.339 0-0.010 0.001-0.022 0.001-0.034 0-0.085-0.010-0.167-0.030-0.246l0.001 0.007c-0.009-0.032-0.023-0.059-0.043-0.083l0 0c-0.020-0.025-0.044-0.045-0.072-0.060l-0.001-0.001c-0.067-0.031-0.144-0.049-0.227-0.049-0.011 0-0.021 0-0.032 0.001l0.001-0h-0.224v0.898h0.224zM26.088 12.624h0.619l0.635 3.004h-0.537l-0.126-0.693h-0.552l-0.129 0.693h-0.545l0.635-3.004zM26.616 14.588l-0.215-1.261-0.215 1.261h0.431zM27.854 12.624h0.403l0.772 1.714v-1.714h0.478v3.004h-0.384l-0.777-1.789v1.789h-0.494l0.001-3.004zM30.628 14.483l-0.642-1.854h0.54l0.392 1.191 0.368-1.191h0.529l-0.634 1.854v1.145h-0.553v-1.145zM16.976 16.942v0.157h-0.47v1.221h-0.197v-1.221h-0.472v-0.157h1.14zM18.45 18.32h-0.152c-0.001 0-0.003 0-0.004 0-0.015 0-0.028-0.005-0.039-0.013l0 0c-0.011-0.008-0.020-0.019-0.025-0.031l-0-0-0.136-0.327h-0.652l-0.136 0.327c-0.004 0.014-0.011 0.027-0.021 0.037l0-0c-0.011 0.008-0.025 0.013-0.040 0.013-0.001 0-0.002-0-0.003-0h-0.152l0.576-1.378h0.201l0.583 1.372zM17.496 17.808h0.544l-0.23-0.561c-0.015-0.035-0.029-0.078-0.041-0.122l-0.002-0.007c-0.008 0.026-0.015 0.051-0.022 0.073l-0.021 0.058-0.228 0.56zM19.443 18.184c0.036 0.002 0.072 0.002 0.108 0 0.035-0.003 0.066-0.009 0.096-0.017l-0.004 0.001c0.033-0.008 0.061-0.016 0.087-0.027l-0.004 0.002c0.025-0.010 0.051-0.022 0.077-0.034v-0.31h-0.23c-0.001 0-0.002 0-0.002 0-0.011 0-0.021-0.004-0.029-0.011l0 0c-0.004-0.003-0.007-0.007-0.009-0.011l-0-0c-0.002-0.004-0.003-0.008-0.003-0.013 0-0 0-0.001 0-0.001v0-0.106h0.447v0.528c-0.033 0.023-0.071 0.044-0.11 0.063l-0.005 0.002c-0.036 0.017-0.078 0.033-0.122 0.046l-0.006 0.001c-0.041 0.012-0.089 0.022-0.14 0.028l-0.005 0c-0.050 0.006-0.108 0.009-0.167 0.009-0 0-0.001 0-0.001 0h0c-0.002 0-0.004 0-0.007 0-0.102 0-0.199-0.019-0.289-0.053l0.006 0.002c-0.089-0.034-0.166-0.083-0.231-0.144l0 0c-0.062-0.061-0.112-0.133-0.147-0.214l-0.002-0.004c-0.034-0.082-0.053-0.177-0.053-0.276 0-0.003 0-0.007 0-0.010v0c-0-0.003-0-0.006-0-0.009 0-0.1 0.019-0.196 0.054-0.284l-0.002 0.005c0.035-0.085 0.086-0.158 0.148-0.218l0-0c0.064-0.061 0.141-0.109 0.226-0.141l0.005-0.002c0.089-0.033 0.191-0.051 0.298-0.051 0.004 0 0.008 0 0.012 0h-0.001c0.054-0 0.107 0.004 0.16 0.012 0.047 0.007 0.093 0.019 0.137 0.035s0.082 0.034 0.118 0.056l-0.003-0.002c0.035 0.022 0.069 0.046 0.1 0.072l-0.055 0.085c-0.005 0.008-0.011 0.014-0.018 0.019l-0 0c-0.008 0.004-0.017 0.007-0.026 0.007h-0c-0.013-0-0.026-0.004-0.036-0.011l0 0c-0.023-0.012-0.041-0.023-0.059-0.034l0.003 0.002c-0.022-0.013-0.047-0.026-0.074-0.036l-0.003-0.001c-0.030-0.012-0.065-0.022-0.102-0.030l-0.004-0.001c-0.042-0.008-0.090-0.012-0.139-0.012-0.003 0-0.005 0-0.007 0h0c-0.002-0-0.004-0-0.007-0-0.077 0-0.151 0.014-0.22 0.040l0.004-0.001c-0.066 0.025-0.123 0.062-0.169 0.109v0c-0.048 0.050-0.084 0.108-0.107 0.171-0.024 0.068-0.039 0.147-0.039 0.23s0.014 0.161 0.040 0.235l-0.002-0.005c0.027 0.068 0.066 0.126 0.115 0.173l0 0c0.047 0.047 0.105 0.084 0.168 0.109 0.073 0.024 0.151 0.033 0.228 0.027zM21.28 18.162h0.629v0.157h-0.822v-1.378h0.197l-0.005 1.221zM22.564 18.319h-0.197v-1.378h0.197v1.378zM23.297 16.948c0.012 0.006 0.022 0.015 0.030 0.025l0 0 0.842 1.039c-0.001-0.007-0.001-0.016-0.001-0.025s0-0.017 0.001-0.026l-0 0.001v-1.027h0.172v1.383h-0.099c-0.002 0-0.004 0-0.007 0-0.013 0-0.025-0.003-0.037-0.008l0.001 0c-0.012-0.007-0.022-0.016-0.031-0.026l-0-0-0.841-1.037v1.071h-0.165v-1.378h0.103c0.012 0 0.023 0.002 0.033 0.007l-0.001-0zM25.791 16.942v0.152h-0.698v0.455h0.566v0.146h-0.566v0.47h0.698v0.152h-0.901v-1.375h0.901zM5.143 8.433l8.75 2.352v8.242l-8.75-2.351v-8.243zM4.582 7.73v9.346l9.871 2.654v-9.345l-9.871-2.655z"></path>
<path  d="M9.872 24.068l-9.872-2.656v-9.345l9.872 2.655v9.346z"></path>
<path  d="M4.745 8.327l8.636 2.322-3.672 3.478-8.637-2.324 3.674-3.477zM4.582 7.73l-4.582 4.337 9.872 2.655 4.581-4.337-9.871-2.655zM10.427 23.543l4.025-3.811-4.025-1.083v4.895z"></path>
</symbol>

<symbol id="icon-logo-5" viewBox="0 0 32 32">
<path  d="M2.434 24.557c0.125 0.155 0.191 0.349 0.188 0.548 0.001 0.013 0.001 0.028 0.001 0.043 0 0.122-0.025 0.237-0.070 0.343l0.002-0.006c-0.053 0.124-0.129 0.228-0.223 0.312l-0.001 0.001c-0.209 0.16-0.473 0.256-0.76 0.256-0.030 0-0.060-0.001-0.089-0.003l0.004 0h-1.486v-3.474h1.455c0.025-0.002 0.053-0.003 0.082-0.003 0.272 0 0.523 0.088 0.727 0.236l-0.004-0.002c0.094 0.079 0.168 0.179 0.217 0.292s0.071 0.235 0.065 0.358c0.001 0.011 0.001 0.023 0.001 0.036 0 0.187-0.064 0.36-0.171 0.497l0.001-0.002c-0.111 0.135-0.263 0.232-0.438 0.271l-0.005 0.001c0.197 0.036 0.375 0.141 0.502 0.297zM0.691 24.033h0.622c0.013 0.001 0.028 0.002 0.044 0.002 0.133 0 0.255-0.044 0.353-0.118l-0.002 0.001c0.083-0.076 0.135-0.184 0.135-0.305 0-0.012-0-0.024-0.002-0.036l0 0.002c0.001-0.009 0.001-0.019 0.001-0.030 0-0.122-0.051-0.232-0.133-0.309l-0-0c-0.099-0.074-0.224-0.119-0.359-0.119-0.017 0-0.034 0.001-0.051 0.002l0.002-0h-0.612v0.911zM1.77 25.365c0.091-0.080 0.148-0.196 0.148-0.325 0-0.010-0-0.019-0.001-0.029l0 0.001c0-0.007 0.001-0.016 0.001-0.025 0-0.132-0.058-0.251-0.151-0.331l-0.001-0c-0.105-0.079-0.238-0.127-0.383-0.127-0.014 0-0.028 0-0.042 0.001l0.002-0h-0.652v0.955h0.661c0.011 0.001 0.024 0.001 0.038 0.001 0.142 0 0.274-0.046 0.382-0.123l-0.002 0.001zM5.409 26.051l-0.81-1.358h-0.304v1.358h-0.696v-3.474h1.318c0.027-0.002 0.059-0.003 0.090-0.003 0.316 0 0.605 0.113 0.83 0.3l-0.002-0.002c0.195 0.2 0.316 0.474 0.316 0.776 0 0.249-0.082 0.479-0.22 0.664l0.002-0.003c-0.159 0.182-0.376 0.309-0.622 0.352l-0.006 0.001 0.862 1.388h-0.757zM4.295 24.22h0.57c0.396 0 0.593-0.175 0.593-0.526 0.001-0.009 0.001-0.019 0.001-0.029 0-0.14-0.056-0.268-0.146-0.361l0 0c-0.106-0.089-0.244-0.143-0.395-0.143-0.019 0-0.037 0.001-0.056 0.002l0.002-0h-0.576l0.007 1.057zM9.215 25.352h-1.388l-0.245 0.699h-0.73l1.274-3.435h0.789l1.269 3.435h-0.73l-0.24-0.699zM9.029 24.826l-0.507-1.466-0.507 1.466h1.014zM13.98 26.051h-0.691l-1.55-2.362v2.362h-0.69v-3.474h0.69l1.55 2.376v-2.376h0.691v3.474zM17.925 25.219c-0.145 0.263-0.359 0.473-0.617 0.609l-0.008 0.004c-0.267 0.138-0.583 0.22-0.918 0.22-0.019 0-0.038-0-0.056-0.001l0.003 0h-1.231v-3.474h1.231c0.016-0 0.035-0.001 0.054-0.001 0.334 0 0.65 0.079 0.93 0.22l-0.012-0.005c0.267 0.137 0.481 0.345 0.622 0.598l0.004 0.008c0.136 0.265 0.216 0.579 0.216 0.911s-0.080 0.646-0.222 0.923l0.005-0.011zM17.134 25.136c0.19-0.221 0.306-0.512 0.306-0.829 0-0 0-0 0-0v0c0-0.304-0.108-0.598-0.306-0.829-0.21-0.185-0.487-0.298-0.791-0.298-0.026 0-0.052 0.001-0.078 0.003l0.004-0h-0.48v2.249h0.48c0.022 0.002 0.049 0.002 0.075 0.002 0.303 0 0.581-0.113 0.792-0.299l-0.001 0.001zM9.648 3.254s8.923 3.382 8.734 8.277v8.278s-8.916-3.384-8.73-8.278l-0.003-8.277zM26.331 17.871c1.597-1.117 3.527-1.868 5.615-2.093l0.054-0.005v-2.591c-2.345 0.907-4.333 2.552-5.669 4.689z"></path>
<path  d="M25.318 18.652c1.379-2.788 3.77-4.94 6.682-6.013v-7.467s-12.707 4.818-12.439 11.788v11.786s0.566-0.215 1.457-0.619c0-0.377 0-0.757 0.041-1.139 0.263-3.236 1.795-6.234 4.259-8.336z"></path>
<path  d="M24.11 23.030c0.074-0.89 0.232-1.712 0.467-2.5l-0.022 0.086c-1.534 1.815-2.464 4.067-2.657 6.44-0.019 0.224-0.029 0.448-0.034 0.679 1.035-0.498 1.836-0.929 2.618-1.387l-0.174 0.094c-0.152-0.724-0.239-1.556-0.239-2.408 0-0.354 0.015-0.704 0.044-1.050l-0.003 0.045zM24.615 23.073c-0.025 0.286-0.039 0.619-0.039 0.956 0 0.755 0.071 1.493 0.208 2.208l-0.012-0.073c3.472-2.086 7.373-5.308 7.223-9.203v-0.339c-2.48 0.279-4.801 1.367-6.606 3.099-0.399 0.983-0.675 2.122-0.771 3.312l-0.003 0.042z"></path>
</symbol>

<symbol id="icon-logo-4" viewBox="0 0 32 32">
<path  d="M4.961 12.532h-0.001c-0.905 0-1.638 0.715-1.638 1.597v0.001c0 0.882 0.734 1.597 1.638 1.597h0.001c0.905 0 1.638-0.715 1.638-1.597v-0.001c0-0.882-0.734-1.597-1.638-1.597zM17.055 12.022c-0.003-1.225-0.503-2.399-1.392-3.265s-2.093-1.354-3.35-1.357c-1.257 0.002-2.462 0.49-3.351 1.356s-1.39 2.041-1.392 3.266v6.754s9.484-1.029 9.485-6.753v-0.001zM0 20.993c0.002 0.852 0.351 1.669 0.969 2.272s1.456 0.942 2.331 0.945c0.874-0.002 1.712-0.342 2.33-0.945s0.967-1.419 0.969-2.271v-4.7s-6.599 0.717-6.599 4.699zM3.3 21.835c-0 0-0.001 0-0.001 0-0.178 0-0.344-0.053-0.483-0.144l0.003 0.002c-0.142-0.093-0.253-0.224-0.318-0.378-0.042-0.095-0.066-0.206-0.066-0.322 0-0.058 0.006-0.115 0.018-0.17l-0.001 0.005c0.036-0.171 0.12-0.318 0.236-0.431l0-0c0.118-0.115 0.269-0.196 0.437-0.23l0.006-0.001c0.051-0.010 0.109-0.016 0.168-0.016 0.119 0 0.233 0.024 0.337 0.066l-0.006-0.002c0.158 0.064 0.293 0.172 0.388 0.31 0.091 0.131 0.145 0.293 0.146 0.468v0c0 0.001 0 0.002 0 0.003 0 0.116-0.024 0.226-0.067 0.326l0.002-0.005c-0.046 0.107-0.109 0.198-0.187 0.274l-0 0c-0.078 0.077-0.172 0.139-0.275 0.181l-0.006 0.002c-0.098 0.041-0.212 0.064-0.331 0.064-0 0-0 0-0 0v0-0.003zM10.036 21.312h-0.675v0.697h-0.352v-1.706h1.111v0.285h-0.759v0.441h0.675v0.284zM11.725 21.195c0 0.168-0.030 0.315-0.089 0.442s-0.145 0.224-0.255 0.293c-0.11 0.069-0.237 0.103-0.38 0.103-0.141 0-0.268-0.034-0.379-0.102s-0.197-0.165-0.258-0.291c-0.061-0.127-0.092-0.272-0.093-0.436v-0.084c0-0.168 0.030-0.316 0.090-0.443s0.146-0.226 0.257-0.294c0.111-0.069 0.237-0.103 0.38-0.103s0.268 0.034 0.379 0.103c0.111 0.068 0.196 0.166 0.257 0.294s0.091 0.275 0.091 0.442v0.076zM11.369 21.118c0-0.179-0.032-0.315-0.096-0.408s-0.155-0.139-0.274-0.139c-0.118 0-0.209 0.046-0.273 0.138s-0.096 0.226-0.097 0.403v0.083c0 0.174 0.032 0.309 0.096 0.405s0.156 0.144 0.277 0.144c0.118 0 0.209-0.046 0.272-0.138s0.095-0.228 0.096-0.405v-0.083zM12.866 21.562c0-0.066-0.023-0.117-0.070-0.152s-0.131-0.073-0.253-0.112c-0.122-0.040-0.218-0.079-0.289-0.117-0.194-0.105-0.291-0.246-0.291-0.423 0-0.092 0.026-0.174 0.077-0.246s0.127-0.129 0.224-0.17c0.098-0.041 0.207-0.061 0.328-0.061s0.23 0.022 0.326 0.067c0.095 0.044 0.169 0.106 0.221 0.186s0.080 0.172 0.080 0.274h-0.352c0-0.078-0.025-0.139-0.074-0.182s-0.118-0.066-0.207-0.066c-0.086 0-0.153 0.018-0.2 0.055s-0.071 0.084-0.071 0.143c0 0.055 0.028 0.102 0.083 0.139s0.139 0.073 0.247 0.105c0.2 0.060 0.346 0.135 0.437 0.224s0.137 0.2 0.137 0.333c0 0.148-0.056 0.264-0.168 0.348s-0.262 0.125-0.451 0.125c-0.131 0-0.251-0.024-0.359-0.071s-0.19-0.114-0.247-0.198c-0.056-0.084-0.084-0.18-0.084-0.291h0.353c0 0.188 0.113 0.282 0.338 0.282 0.084 0 0.149-0.017 0.196-0.050s0.070-0.082 0.070-0.143zM14.742 20.588h-0.523v1.421h-0.352v-1.421h-0.516v-0.285h1.39v0.285zM15.97 21.27h-0.675v0.457h0.792v0.282h-1.144v-1.706h1.141v0.285h-0.79v0.407h0.675v0.275zM16.925 21.385h-0.28v0.625h-0.352v-1.706h0.634c0.202 0 0.357 0.045 0.466 0.135s0.164 0.217 0.164 0.381c0 0.116-0.025 0.214-0.076 0.292s-0.126 0.139-0.228 0.185l0.369 0.697v0.016h-0.377l-0.32-0.625zM16.645 21.1h0.284c0.088 0 0.157-0.022 0.205-0.067s0.073-0.107 0.073-0.186c0-0.080-0.023-0.144-0.069-0.19s-0.115-0.069-0.21-0.069h-0.282v0.512zM18.775 21.409v0.601h-0.352v-1.706h0.666c0.128 0 0.241 0.023 0.337 0.070s0.173 0.114 0.225 0.2c0.052 0.086 0.079 0.184 0.079 0.294 0 0.167-0.057 0.299-0.172 0.396s-0.272 0.144-0.475 0.144h-0.308zM18.775 21.124h0.314c0.093 0 0.164-0.022 0.212-0.066s0.074-0.106 0.074-0.187c0-0.084-0.025-0.151-0.074-0.203s-0.117-0.078-0.204-0.080h-0.322v0.536zM21 21.27h-0.675v0.457h0.792v0.282h-1.144v-1.706h1.141v0.285h-0.79v0.407h0.675v0.275zM22.631 20.588h-0.523v1.421h-0.352v-1.421h-0.516v-0.285h1.39v0.285zM23.859 21.27h-0.675v0.457h0.792v0.282h-1.144v-1.706h1.141v0.285h-0.79v0.407h0.675v0.275zM24.814 21.385h-0.28v0.625h-0.352v-1.706h0.634c0.202 0 0.357 0.045 0.466 0.135s0.164 0.217 0.164 0.381c0 0.116-0.025 0.214-0.076 0.292s-0.126 0.139-0.229 0.185l0.369 0.697v0.016h-0.377l-0.32-0.625zM24.534 21.1h0.284c0.088 0 0.157-0.022 0.205-0.067s0.073-0.107 0.073-0.186c0-0.080-0.023-0.144-0.069-0.19s-0.115-0.069-0.21-0.069h-0.282v0.512zM26.6 21.562c0-0.066-0.023-0.117-0.070-0.152s-0.131-0.073-0.253-0.112c-0.122-0.040-0.218-0.079-0.289-0.117-0.194-0.105-0.291-0.246-0.291-0.423 0-0.092 0.026-0.174 0.077-0.246s0.127-0.129 0.224-0.17c0.098-0.041 0.207-0.061 0.328-0.061s0.23 0.022 0.326 0.067c0.095 0.044 0.169 0.106 0.221 0.186s0.080 0.172 0.080 0.274h-0.352c0-0.078-0.025-0.139-0.074-0.182s-0.118-0.066-0.207-0.066c-0.086 0-0.153 0.018-0.2 0.055s-0.071 0.084-0.071 0.143c0 0.055 0.028 0.102 0.083 0.139s0.139 0.073 0.247 0.105c0.2 0.060 0.346 0.135 0.437 0.224s0.137 0.2 0.137 0.333c0 0.148-0.056 0.264-0.168 0.348s-0.262 0.125-0.451 0.125c-0.131 0-0.251-0.024-0.359-0.071s-0.19-0.114-0.247-0.198c-0.056-0.084-0.084-0.18-0.084-0.291h0.353c0 0.188 0.112 0.282 0.337 0.282 0.084 0 0.149-0.017 0.196-0.050s0.070-0.082 0.070-0.143z"></path>
</symbol>

<symbol id="icon-logo-3" viewBox="0 0 32 32">
<path  d="M5.466 31.103c0.012 0 0.023 0.003 0.033 0.007l-0.001-0c0.011 0.005 0.019 0.011 0.027 0.018v0l0.153 0.161c-0.118 0.128-0.262 0.231-0.423 0.301l-0.008 0.003c-0.169 0.070-0.366 0.11-0.572 0.11-0.014 0-0.027-0-0.041-0.001l0.002 0c-0.009 0-0.020 0-0.030 0-0.196 0-0.383-0.038-0.554-0.106l0.010 0.004c-0.169-0.068-0.313-0.166-0.432-0.288l-0-0c-0.119-0.124-0.214-0.272-0.276-0.436l-0.003-0.009c-0.062-0.164-0.098-0.354-0.098-0.552 0-0.006 0-0.013 0-0.019v0.001c-0-0.006-0-0.013-0-0.020 0-0.199 0.039-0.389 0.109-0.562l-0.004 0.010c0.071-0.174 0.172-0.322 0.297-0.445l0-0c0.128-0.123 0.281-0.221 0.45-0.287l0.009-0.003c0.17-0.065 0.367-0.102 0.573-0.102 0.006 0 0.013 0 0.019 0h-0.001c0.010-0 0.022-0 0.035-0 0.185 0 0.362 0.034 0.525 0.097l-0.010-0.003c0.152 0.063 0.291 0.15 0.412 0.257l-0.128 0.171c-0.009 0.012-0.020 0.022-0.032 0.031l-0 0c-0.013 0.008-0.028 0.013-0.044 0.013-0.003 0-0.005-0-0.008-0l0 0c-0.021-0.001-0.040-0.008-0.056-0.018l0 0-0.069-0.046-0.096-0.058c-0.035-0.019-0.077-0.038-0.121-0.054l-0.007-0.002c-0.048-0.017-0.106-0.033-0.166-0.044l-0.008-0.001c-0.063-0.012-0.136-0.018-0.211-0.018-0.006 0-0.012 0-0.018 0h0.001c-0.004-0-0.009-0-0.014-0-0.148 0-0.289 0.028-0.419 0.079l0.008-0.003c-0.13 0.051-0.241 0.124-0.333 0.215l0-0c-0.092 0.095-0.166 0.21-0.214 0.336l-0.002 0.007c-0.050 0.13-0.079 0.28-0.079 0.436 0 0.006 0 0.011 0 0.017v-0.001c-0.002 0.156 0.024 0.312 0.078 0.46 0.047 0.126 0.119 0.242 0.212 0.341 0.088 0.093 0.196 0.165 0.318 0.212 0.114 0.046 0.246 0.073 0.384 0.073 0.003 0 0.007-0 0.011-0h-0.001c0.078 0.001 0.156-0.004 0.234-0.015 0.133-0.016 0.253-0.059 0.358-0.124l-0.004 0.002c0.054-0.034 0.104-0.072 0.151-0.113 0.019-0.017 0.045-0.028 0.073-0.029h0zM9.888 30.296c0 0.005 0 0.012 0 0.018 0 0.198-0.038 0.386-0.107 0.559l0.004-0.010c-0.067 0.172-0.165 0.319-0.288 0.44l-0 0c-0.126 0.123-0.276 0.221-0.444 0.286l-0.009 0.003c-0.173 0.065-0.373 0.102-0.582 0.102s-0.409-0.037-0.594-0.106l0.012 0.004c-0.175-0.069-0.325-0.167-0.45-0.29l0 0c-0.123-0.123-0.222-0.271-0.288-0.436l-0.003-0.009c-0.065-0.169-0.103-0.364-0.103-0.568s0.038-0.399 0.107-0.579l-0.004 0.011c0.070-0.174 0.168-0.322 0.291-0.447l-0 0c0.126-0.119 0.275-0.213 0.441-0.276l0.009-0.003c0.173-0.066 0.373-0.104 0.582-0.104s0.409 0.038 0.593 0.108l-0.012-0.004c0.17 0.066 0.324 0.165 0.452 0.29 0.122 0.122 0.22 0.268 0.286 0.431l0.003 0.009c0.071 0.183 0.106 0.376 0.103 0.571zM9.486 30.296c0-0.007 0-0.016 0-0.025 0-0.154-0.027-0.303-0.076-0.44l0.003 0.009c-0.046-0.132-0.116-0.246-0.205-0.341l0.001 0.001c-0.089-0.092-0.197-0.165-0.317-0.213l-0.006-0.002c-0.126-0.047-0.271-0.075-0.423-0.075s-0.297 0.027-0.431 0.078l0.009-0.003c-0.127 0.050-0.235 0.123-0.323 0.215l-0 0c-0.090 0.094-0.161 0.208-0.205 0.334l-0.002 0.006c-0.046 0.136-0.073 0.293-0.073 0.456s0.027 0.32 0.076 0.466l-0.003-0.010c0.043 0.126 0.114 0.242 0.207 0.341 0.089 0.092 0.197 0.164 0.317 0.211l0.006 0.002c0.126 0.046 0.271 0.073 0.423 0.073s0.297-0.027 0.432-0.076l-0.009 0.003c0.127-0.049 0.235-0.122 0.323-0.213l0-0c0.088-0.095 0.158-0.209 0.203-0.334l0.002-0.007c0.046-0.128 0.073-0.275 0.073-0.429 0-0.009-0-0.019-0-0.028l0 0.001zM12.905 30.774l0.040 0.102c0.015-0.036 0.029-0.069 0.044-0.102 0.017-0.040 0.034-0.073 0.052-0.105l-0.002 0.005 0.978-1.694c0.019-0.029 0.036-0.047 0.056-0.053s0.043-0.009 0.067-0.009c0.005 0 0.010 0 0.014 0l-0.001-0h0.289v2.755h-0.343v-2.112c-0.001-0.014-0.001-0.031-0.001-0.047s0.001-0.033 0.001-0.050l-0 0.002-0.984 1.718c-0.013 0.026-0.033 0.048-0.057 0.062l-0.001 0c-0.024 0.014-0.052 0.023-0.083 0.023-0 0-0.001 0-0.001 0h-0.055c-0.001 0-0.002 0-0.003 0-0.030 0-0.058-0.008-0.082-0.023l0.001 0c-0.025-0.015-0.044-0.037-0.057-0.062l-0-0.001-1.013-1.729v2.212h-0.331v-2.75h0.289c0.004-0 0.009-0 0.014-0 0.024 0 0.047 0.003 0.069 0.010l-0.002-0c0.024 0.011 0.042 0.030 0.053 0.052l0 0.001 0.999 1.696c0.018 0.028 0.035 0.060 0.048 0.094l0.001 0.004zM16.586 30.638v1.032h-0.383v-2.752h0.854c0.009-0 0.020-0 0.031-0 0.159 0 0.312 0.022 0.458 0.063l-0.012-0.003c0.13 0.035 0.242 0.094 0.339 0.173l-0.002-0.001c0.083 0.072 0.148 0.163 0.19 0.265l0.002 0.005c0.045 0.112 0.067 0.232 0.065 0.352 0 0.003 0 0.008 0 0.012 0 0.123-0.026 0.24-0.073 0.346l0.002-0.005c-0.049 0.109-0.119 0.202-0.206 0.274l-0.001 0.001c-0.095 0.080-0.208 0.143-0.332 0.181l-0.007 0.002c-0.129 0.041-0.277 0.064-0.431 0.064-0.011 0-0.021-0-0.031-0l-0.462-0.007zM16.586 30.342h0.463c0.004 0 0.008 0 0.012 0 0.102 0 0.2-0.015 0.292-0.044l-0.007 0.002c0.083-0.027 0.154-0.067 0.215-0.119l-0.001 0.001c0.056-0.049 0.1-0.11 0.129-0.179l0.001-0.003c0.029-0.066 0.046-0.143 0.046-0.224 0-0.003-0-0.005-0-0.007v0c0.001-0.009 0.001-0.019 0.001-0.029 0-0.070-0.014-0.137-0.041-0.198l0.001 0.003c-0.032-0.074-0.077-0.137-0.133-0.188l-0-0c-0.146-0.109-0.33-0.162-0.515-0.148h-0.463v1.134zM21.731 31.673h-0.302c-0.002 0-0.003 0-0.005 0-0.030 0-0.057-0.010-0.080-0.026l0 0c-0.021-0.017-0.038-0.038-0.049-0.063l-0-0.001-0.26-0.666h-1.307l-0.27 0.666c-0.011 0.025-0.027 0.046-0.047 0.062l-0 0c-0.022 0.017-0.051 0.027-0.082 0.027-0.002 0-0.003-0-0.005-0h-0.302l1.148-2.756h0.398l1.164 2.756zM19.836 30.65h1.080l-0.456-1.122c-0.030-0.071-0.060-0.157-0.083-0.245l-0.003-0.013-0.044 0.144c-0.015 0.049-0.030 0.088-0.046 0.126l0.003-0.009-0.452 1.12zM23.385 28.931c0.023 0.012 0.042 0.029 0.057 0.049l0 0 1.675 2.077v-2.139h0.343v2.756h-0.191c-0.002 0-0.003 0-0.005 0-0.027 0-0.052-0.006-0.074-0.017l0.001 0c-0.024-0.013-0.044-0.030-0.061-0.051l-0-0-1.673-2.075c0.001 0.014 0.001 0.031 0.001 0.047s-0 0.033-0.002 0.050l0-0.002v2.048h-0.343v-2.756h0.203c0.001-0 0.003-0 0.005-0 0.023 0 0.045 0.005 0.065 0.013l-0.001-0zM28.281 30.577v1.094h-0.383v-1.094l-1.059-1.66h0.343c0.002-0 0.005-0 0.008-0 0.028 0 0.054 0.009 0.075 0.024l-0-0c0.020 0.017 0.038 0.038 0.051 0.061l0.001 0.001 0.662 1.071c0.020 0.033 0.043 0.075 0.065 0.118l0.004 0.010c0.019 0.040 0.034 0.078 0.048 0.117l0.050-0.119c0.021-0.049 0.043-0.091 0.067-0.13l-0.002 0.004 0.653-1.078c0.014-0.022 0.031-0.041 0.049-0.058l0-0c0.021-0.017 0.047-0.027 0.076-0.027 0.002 0 0.004 0 0.006 0h0.346l-1.060 1.667zM12.715 24.293c0.167 0.020 0.335 0.036 0.505 0.051 2.583-1.101 4.768-2.902 6.282-5.18s2.29-4.929 2.231-7.624l-2.846-2.712c0.579 2.869 0.308 5.836-0.782 8.567s-2.956 5.12-5.389 6.898z"></path>
<path  d="M11.699 24.167l0.077 0.015c2.6-1.772 4.583-4.247 5.691-7.104s1.292-5.965 0.526-8.922l-4.054-3.862c1.64 3.175 2.3 6.728 1.903 10.246s-1.833 6.857-4.143 9.628zM25.448 14.725c-0.689 2.961-2.362 5.632-4.77 7.616-0.665 0.554-1.406 1.067-2.191 1.511l-0.075 0.039c1.961-0.549 3.764-1.52 5.269-2.838s2.672-2.947 3.412-4.763l-1.644-1.565z"></path>
<path  d="M24.803 14.289l-2.341-2.23c-0.045 2.543-0.803 5.028-2.197 7.197s-3.372 3.943-5.729 5.137h0.011c0.554-0 1.1-0.033 1.637-0.096l-0.065 0.006c2.203-0.857 4.148-2.219 5.664-3.967s2.553-3.825 3.021-6.047zM12.038 2.664l-2.793-2.664c-2.497 0.919-4.644 2.535-6.161 4.636s-2.332 4.589-2.34 7.139c0.009 2.818 1.005 5.552 2.829 7.77s4.372 3.793 7.242 4.476c2.561-2.973 4.061-6.647 4.281-10.488s-0.851-7.648-3.058-10.869zM31.256 13.878c-0.010-3.343-1.409-6.546-3.89-8.91s-5.843-3.696-9.352-3.706c-1.621-0.002-3.229 0.284-4.741 0.841l17.099 16.291c0.585-1.44 0.885-2.971 0.884-4.515z"></path>
</symbol>

<symbol id="icon-logo-2" viewBox="0 0 32 32">
<path  d="M14.14 1.806h0.084c0.156 0 0.324 0.016 0.49 0.030 0.807 0.058 1.552 0.175 2.274 0.348l-0.095-0.019v-1.762c-0.652-0.172-1.42-0.299-2.207-0.356l-0.042-0.002c-0.288-0.022-0.595-0.036-0.909-0.044h-0.263c-1.607 0.006-3.161 0.218-4.643 0.611l0.128-0.029c-1.816 0.46-3.411 1.128-4.875 1.995l0.085-0.046v17.475c1.312-0.729 2.832-1.338 4.431-1.75l0.135-0.029c1.123-0.3 2.434-0.51 3.78-0.586l0.052-0.002h0.051c0.216-0.011 0.433-0.017 0.655-0.019v-1.79c-1.78 0.024-3.493 0.264-5.129 0.695l0.147-0.033c-0.602 0.157-1.185 0.325-1.731 0.513l-0.623 0.211v-13.625l0.266-0.128c1.89-0.918 4.096-1.512 6.424-1.649l0.047-0.002c0.008-0.001 0.018-0.001 0.028-0.001s0.020 0 0.029 0.001l-0.001-0c0.248-0.012 0.497-0.019 0.741-0.019h0.28c0.129 0.003 0.258 0.006 0.388 0.014z"></path>
<path  d="M18.53 3.651c-0.409 0-0.814-0.014-1.205-0.044-0.467-0.034-0.947-0.091-1.401-0.167-0.363-0.061-0.638-0.119-0.91-0.184l0.096 0.019v17.275c0.995 0.257 2.137 0.404 3.314 0.404 0.039 0 0.078-0 0.117-0l-0.006 0c1.607-0.007 3.162-0.218 4.643-0.609l-0.128 0.029c1.817-0.461 3.412-1.129 4.877-1.995l-0.085 0.047v-17.163c-1.312 0.728-2.831 1.338-4.429 1.751l-0.136 0.030c-1.423 0.381-3.057 0.602-4.743 0.609h-0.004zM25.437 3.95l0.623-0.21v13.63l-0.266 0.128c-0.903 0.442-1.962 0.834-3.065 1.118l-0.119 0.026c-1.221 0.329-2.624 0.521-4.070 0.527h-0.004c-0.411 0-0.819-0.017-1.214-0.052l-0.427-0.038v-14.017l0.497 0.033c0.361 0.024 0.735 0.034 1.141 0.034 1.841-0.007 3.622-0.248 5.32-0.696l-0.147 0.033c0.777-0.203 1.355-0.38 1.924-0.576l-0.193 0.058zM5.377 25.977c-0.087-0.091-0.193-0.163-0.311-0.212l-0.006-0.002c-0.101-0.042-0.219-0.067-0.343-0.067-0.012 0-0.023 0-0.035 0.001l0.002-0c-0.004-0-0.009-0-0.014-0-0.139 0-0.272 0.028-0.393 0.078l0.007-0.003c-0.121 0.049-0.225 0.119-0.311 0.205v0c-0.086 0.087-0.154 0.191-0.199 0.307l-0.002 0.006c-0.045 0.111-0.072 0.24-0.072 0.375 0 0.004 0 0.008 0 0.012v-0.001 2.335c-0.006 0.165 0.026 0.328 0.092 0.479 0.055 0.12 0.135 0.226 0.233 0.313 0.093 0.079 0.203 0.135 0.321 0.166 0.113 0.032 0.231 0.048 0.349 0.049 0.003 0 0.006 0 0.009 0 0.134 0 0.26-0.030 0.374-0.084l-0.005 0.002c0.121-0.054 0.225-0.127 0.311-0.216l0-0c0.084-0.088 0.153-0.192 0.201-0.306l0.003-0.007c0.047-0.109 0.075-0.235 0.075-0.368 0-0.002 0-0.003 0-0.005v0-0.261h-0.61v0.208c0 0.004 0 0.009 0 0.014 0 0.070-0.013 0.137-0.037 0.198l0.001-0.004c-0.021 0.052-0.051 0.095-0.089 0.131l-0 0c-0.036 0.029-0.079 0.052-0.125 0.067l-0.003 0.001c-0.038 0.013-0.082 0.021-0.127 0.022h-0c-0.011 0.001-0.023 0.002-0.036 0.002-0.045 0-0.088-0.010-0.126-0.027l0.002 0.001c-0.051-0.023-0.094-0.057-0.126-0.1l-0.001-0.001c-0.051-0.082-0.081-0.182-0.081-0.289 0-0.008 0-0.017 0.001-0.025l-0 0.001v-2.177c-0-0.007-0-0.015-0-0.023 0-0.118 0.028-0.23 0.077-0.33l-0.002 0.004c0.032-0.049 0.076-0.088 0.127-0.113l0.002-0.001c0.039-0.019 0.084-0.030 0.132-0.030 0.013 0 0.026 0.001 0.039 0.002l-0.002-0c0.003-0 0.008-0 0.012-0 0.107 0 0.201 0.051 0.26 0.131l0.001 0.001c0.063 0.082 0.101 0.187 0.101 0.301 0 0.004-0 0.009-0 0.013v-0.001 0.202h0.604v-0.238c0-0.003 0-0.006 0-0.010 0-0.143-0.027-0.28-0.077-0.406l0.003 0.007c-0.048-0.128-0.117-0.237-0.204-0.329l0 0zM9.002 25.95c-0.186-0.158-0.429-0.255-0.694-0.257h-0c-0.131 0.001-0.256 0.025-0.372 0.068l0.007-0.002c-0.124 0.045-0.231 0.11-0.323 0.192l0.001-0.001c-0.099 0.090-0.179 0.198-0.234 0.321l-0.002 0.006c-0.056 0.127-0.089 0.275-0.089 0.431 0 0.007 0 0.015 0 0.022l-0-0.001v2.239c-0.004 0.158 0.026 0.314 0.089 0.459 0.055 0.12 0.136 0.227 0.237 0.313 0.093 0.087 0.203 0.154 0.322 0.197 0.117 0.043 0.24 0.065 0.364 0.066 0.131-0 0.256-0.024 0.372-0.068l-0.007 0.002c0.127-0.047 0.237-0.114 0.331-0.198l-0.001 0.001c0.096-0.086 0.173-0.19 0.228-0.307l0.002-0.006c0.056-0.127 0.089-0.274 0.089-0.43 0-0.010-0-0.020-0-0.030l0 0.002v-2.239c0-0.006 0-0.014 0-0.021 0-0.156-0.033-0.304-0.092-0.438l0.003 0.007c-0.057-0.128-0.135-0.236-0.23-0.327l-0-0zM8.718 28.969c0.001 0.010 0.001 0.022 0.001 0.034 0 0.114-0.047 0.216-0.123 0.289l-0 0c-0.077 0.065-0.178 0.105-0.287 0.105v0c-0.11-0-0.21-0.040-0.288-0.105l0.001 0.001c-0.076-0.073-0.123-0.176-0.123-0.289 0-0.012 0.001-0.024 0.002-0.036l-0 0.002v-2.239c-0.001-0.010-0.001-0.022-0.001-0.034 0-0.114 0.047-0.216 0.123-0.289l0-0c0.077-0.065 0.178-0.105 0.287-0.105v0c0.11 0 0.21 0.040 0.288 0.105l-0.001-0.001c0.076 0.073 0.123 0.176 0.123 0.29 0 0.012-0.001 0.024-0.002 0.036l0-0.002v2.239zM13.764 29.969v-4.239h-0.587l-0.771 2.244h-0.011l-0.777-2.244h-0.581v4.239h0.606v-2.579h0.011l0.593 1.823h0.302l0.598-1.823h0.011v2.579h0.606zM17.205 26.027c-0.091-0.102-0.206-0.182-0.337-0.23l-0.006-0.002c-0.124-0.042-0.267-0.066-0.416-0.066-0.008 0-0.016 0-0.024 0l0.001-0h-0.9v4.239h0.604v-1.656h0.311c0.189 0.009 0.376-0.031 0.545-0.116 0.139-0.078 0.251-0.188 0.329-0.32l0.002-0.004c0.067-0.106 0.115-0.23 0.138-0.363l0.001-0.006c0.021-0.134 0.033-0.288 0.033-0.444 0-0.013-0-0.026-0-0.040l0 0.002c0.001-0.021 0.001-0.045 0.001-0.070 0-0.19-0.022-0.375-0.063-0.552l0.003 0.016c-0.043-0.153-0.12-0.284-0.223-0.39l0 0zM16.894 27.319c-0.003 0.081-0.023 0.156-0.057 0.224l0.001-0.003c-0.035 0.065-0.089 0.116-0.154 0.148l-0.002 0.001c-0.074 0.034-0.161 0.054-0.253 0.054-0.011 0-0.022-0-0.033-0.001l0.002 0h-0.276v-1.441h0.311c0.008-0 0.018-0.001 0.028-0.001 0.089 0 0.172 0.020 0.248 0.055l-0.004-0.002c0.062 0.036 0.111 0.090 0.141 0.154l0.001 0.002c0.033 0.074 0.051 0.155 0.053 0.236v0.282c0 0.099 0.006 0.2 0 0.291h-0.006zM20.066 25.73h-0.495l-0.934 4.239h0.604l0.177-0.911h0.823l0.177 0.911h0.604l-0.957-4.239zM19.509 28.481l0.297-1.537h0.011l0.296 1.537h-0.604zM23.969 28.284h-0.011l-0.912-2.554h-0.581v4.239h0.604v-2.549h0.012l0.923 2.549h0.568v-4.239h-0.604v2.554zM27.66 25.73l-0.486 1.685h-0.012l-0.486-1.685h-0.64l0.83 2.447v1.792h0.604v-1.792l0.83-2.447h-0.64zM3.692 31.166h0.291v0.817h0.198v-0.817h0.29v-0.167h-0.778v0.167zM6.139 30.998l-0.381 0.984h0.21l0.081-0.224h0.392l0.084 0.224h0.215l-0.391-0.984h-0.21zM6.108 31.593l0.134-0.365 0.134 0.365h-0.268zM8.559 31.62h0.227v0.127c-0.063 0.051-0.145 0.082-0.233 0.083h-0c-0.004 0-0.009 0-0.014 0-0.079 0-0.149-0.037-0.194-0.094l-0-0c-0.046-0.066-0.074-0.147-0.074-0.235 0-0.008 0-0.015 0.001-0.023l-0 0.001c0-0.219 0.095-0.329 0.283-0.329 0.006-0.001 0.013-0.001 0.021-0.001 0.045 0 0.086 0.014 0.12 0.038l-0.001-0c0.040 0.029 0.070 0.070 0.082 0.118l0 0.001 0.195-0.038c-0.042-0.192-0.181-0.289-0.417-0.289-0.004-0-0.008-0-0.013-0-0.127 0-0.244 0.048-0.331 0.127l0-0c-0.048 0.048-0.087 0.106-0.111 0.17l-0.001 0.003c-0.019 0.050-0.031 0.108-0.031 0.169 0 0.013 0.001 0.025 0.001 0.038l-0-0.002c-0 0.007-0.001 0.015-0.001 0.023 0 0.132 0.048 0.253 0.127 0.347l-0.001-0.001c0.087 0.089 0.208 0.145 0.342 0.145 0.011 0 0.022-0 0.033-0.001l-0.001 0c0.005 0 0.011 0 0.016 0 0.155 0 0.296-0.060 0.401-0.157l-0 0v-0.388h-0.427v0.166zM11.029 30.998h-0.199v0.984h0.69v-0.167h-0.49v-0.817zM13.118 30.998h-0.199v0.984h0.199v-0.984zM15.161 31.656l-0.403-0.657h-0.193v0.984h0.185v-0.643l0.395 0.643h0.198v-0.984h-0.182v0.657zM17.007 31.549h0.49v-0.167h-0.49v-0.216h0.528v-0.167h-0.727v0.984h0.747v-0.167h-0.548v-0.266zM21.484 31.387h-0.388v-0.388h-0.198v0.984h0.198v-0.43h0.388v0.43h0.198v-0.984h-0.198v0.388zM23.342 31.549h0.492v-0.167h-0.492v-0.216h0.529v-0.167h-0.727v0.984h0.746v-0.167h-0.548v-0.266zM25.86 31.549c0.171-0.027 0.258-0.117 0.258-0.274 0.001-0.008 0.002-0.018 0.002-0.028 0-0.079-0.038-0.148-0.098-0.191l-0.001-0c-0.073-0.037-0.159-0.059-0.25-0.059-0.013 0-0.027 0-0.040 0.001l0.002-0h-0.417v0.984h0.198v-0.412h0.039c0.005-0 0.011-0 0.016-0 0.039 0 0.075 0.008 0.108 0.023l-0.002-0.001c0.029 0.018 0.053 0.042 0.070 0.071l0.001 0.001 0.215 0.313h0.237l-0.12-0.192c-0.054-0.096-0.128-0.175-0.215-0.235l-0.002-0.002zM25.661 31.413h-0.146v-0.247h0.156c0.012-0.001 0.027-0.002 0.042-0.002 0.057 0 0.112 0.009 0.163 0.026l-0.004-0.001c0.027 0.024 0.043 0.058 0.043 0.096 0 0.043-0.021 0.080-0.052 0.104l-0 0c-0.049 0.016-0.106 0.025-0.165 0.025-0.013 0-0.025-0-0.038-0.001l0.002 0zM27.76 31.549h0.49v-0.167h-0.49v-0.216h0.529v-0.167h-0.729v0.984h0.747v-0.167h-0.548v-0.266z"></path>
</symbol>

<symbol id="icon-logo-1" viewBox="0 0 32 32">
<path  d="M5.44 0l4.677 4.428h13.046v12.351l4.677 4.428v-21.206h-22.4z"></path>
<path  d="M1.6 4.241v20.6h21.76v-8.188l-13.105-12.406-8.655-0.005zM19.215 21.828h-14.172v-13.854h1.002v12.916h13.17v0.938zM7.866 28.662l0.523-1.078h0.438l-0.762 1.438v0.837h-0.397v-0.837l-0.764-1.438h0.439l0.524 1.078zM10.113 29.329h-0.881l-0.184 0.53h-0.411l0.859-2.275h0.355l0.861 2.275h-0.412l-0.186-0.53zM9.343 29.010h0.659l-0.33-0.944-0.33 0.944zM11.671 29.244c0-0.001 0-0.002 0-0.004 0-0.106 0.032-0.205 0.087-0.287l-0.001 0.002c0.057-0.089 0.17-0.193 0.339-0.314-0.088-0.111-0.151-0.206-0.186-0.284s-0.052-0.154-0.052-0.227c0-0.178 0.054-0.319 0.162-0.422s0.254-0.156 0.438-0.156c0.166 0 0.301 0.049 0.406 0.147 0.106 0.097 0.159 0.217 0.159 0.361 0 0.001 0 0.002 0 0.004 0 0.096-0.027 0.185-0.073 0.261l0.001-0.002c-0.048 0.079-0.127 0.158-0.236 0.238l-0.155 0.113 0.439 0.519c0.064-0.125 0.095-0.264 0.095-0.417h0.33c0 0.28-0.066 0.51-0.197 0.689l0.334 0.395h-0.441l-0.128-0.152c-0.162 0.122-0.356 0.183-0.581 0.183s-0.405-0.059-0.541-0.178c-0.134-0.12-0.202-0.276-0.202-0.467zM12.424 29.587c0.128 0 0.248-0.043 0.359-0.128l-0.497-0.586-0.048 0.034c-0.125 0.095-0.188 0.203-0.188 0.325 0 0.105 0.034 0.191 0.102 0.256s0.158 0.098 0.272 0.098zM12.215 28.121c0 0.087 0.054 0.197 0.161 0.33l0.173-0.119 0.048-0.039c0.065-0.057 0.097-0.131 0.097-0.22 0-0.059-0.022-0.11-0.067-0.152-0.045-0.043-0.102-0.064-0.17-0.064-0.074 0-0.133 0.025-0.177 0.075s-0.066 0.113-0.066 0.189zM16.348 29.118c-0.023 0.243-0.113 0.432-0.269 0.569-0.156 0.135-0.364 0.203-0.623 0.203-0.181 0-0.341-0.043-0.48-0.128-0.137-0.086-0.244-0.209-0.319-0.367s-0.114-0.342-0.117-0.552v-0.212c0-0.215 0.038-0.404 0.114-0.567s0.185-0.29 0.327-0.378c0.143-0.088 0.307-0.133 0.494-0.133 0.251 0 0.453 0.068 0.606 0.205s0.242 0.329 0.267 0.578h-0.394c-0.019-0.164-0.067-0.281-0.144-0.353-0.076-0.073-0.188-0.109-0.336-0.109-0.172 0-0.304 0.063-0.397 0.189-0.092 0.125-0.139 0.309-0.141 0.552v0.202c0 0.246 0.044 0.433 0.131 0.563s0.218 0.194 0.387 0.194c0.155 0 0.272-0.035 0.35-0.105s0.128-0.186 0.148-0.348h0.394zM18.518 28.78c0 0.223-0.039 0.419-0.116 0.588-0.077 0.168-0.188 0.297-0.331 0.388-0.143 0.090-0.307 0.134-0.494 0.134-0.184 0-0.349-0.045-0.494-0.134-0.144-0.091-0.255-0.219-0.334-0.386-0.078-0.167-0.118-0.359-0.119-0.576v-0.128c0-0.222 0.039-0.418 0.117-0.588 0.079-0.17 0.19-0.299 0.333-0.389 0.144-0.091 0.308-0.136 0.494-0.136s0.349 0.045 0.492 0.134c0.144 0.088 0.255 0.217 0.333 0.384s0.118 0.361 0.119 0.583v0.127zM18.122 28.662c0-0.252-0.048-0.445-0.144-0.58-0.095-0.134-0.23-0.202-0.405-0.202-0.171 0-0.305 0.067-0.402 0.202-0.096 0.133-0.145 0.322-0.147 0.567v0.131c0 0.25 0.048 0.443 0.145 0.58 0.098 0.136 0.233 0.205 0.406 0.205 0.175 0 0.309-0.067 0.403-0.2 0.095-0.133 0.142-0.328 0.142-0.584v-0.119z"></path>
</symbol>

<symbol id="icon-diagram" viewBox="0 0 32 32">
<path fill="#2196f3" style="fill: var(--color3, #2196f3)" d="M14.926 14.965h1.066v4.798h-1.066v-4.797zM19.19 17.097h1.066v2.665h-1.066v-2.665zM10.661 18.696h1.066v1.066h-1.066v-1.066zM7.463 18.163h1.066v1.599h-1.066v-1.599z"></path>
<path fill="#212121" style="fill: var(--color5, #212121)" d="M1.599 28.291h25.587c0.883 0 1.599-0.716 1.599-1.599v-2.132c0-0.883-0.716-1.599-1.599-1.599h-0.533v-13.293l3.028-2.868c0.703 0.346 1.553 0.136 2.013-0.499s0.396-1.508-0.152-2.068c-0.548-0.56-1.42-0.644-2.065-0.198s-0.873 1.292-0.542 2.002l-2.281 2.163v-1.23c0-0.883-0.716-1.599-1.599-1.599h-21.322c-0.883 0-1.599 0.716-1.599 1.599v15.992h-0.533c-0.883 0-1.599 0.716-1.599 1.599v2.132c0 0.883 0.716 1.599 1.599 1.599zM30.384 4.837c0.294 0 0.533 0.239 0.533 0.533s-0.239 0.533-0.533 0.533c-0.294 0-0.533-0.239-0.533-0.533s0.239-0.533 0.533-0.533zM3.198 6.969c0-0.294 0.239-0.533 0.533-0.533h21.322c0.294 0 0.533 0.239 0.533 0.533v2.239l-1.066 1.013v-2.186c0-0.294-0.239-0.533-0.533-0.533h-19.19c-0.294 0-0.533 0.239-0.533 0.533v13.326c0 0.294 0.239 0.533 0.533 0.533h19.19c0.294 0 0.533-0.239 0.533-0.533v-9.674l1.066-1.010v12.284h-22.388v-15.992zM7.996 13.899c-0.721-0.002-1.354 0.478-1.546 1.174s0.105 1.433 0.725 1.801c0.62 0.368 1.41 0.276 1.928-0.226l1.853 0.93c0.069 0.035 0.151 0.056 0.238 0.056 0.158 0 0.3-0.069 0.398-0.178l0-0.001 3.939-4.431 3.872 2.901c0.088 0.066 0.199 0.106 0.32 0.106 0.142 0 0.271-0.056 0.367-0.146l-0 0 3.365-3.188v8.131h-18.124v-12.26h18.124v2.66l-3.771 3.572-3.904-2.927c-0.222-0.166-0.534-0.135-0.718 0.072l-3.993 4.493-1.493-0.746c0.010-0.056 0.017-0.123 0.020-0.19l0-0.003c0-0.883-0.716-1.599-1.599-1.599zM8.529 15.498c0 0.294-0.239 0.533-0.533 0.533s-0.533-0.239-0.533-0.533c0-0.294 0.239-0.533 0.533-0.533s0.533 0.239 0.533 0.533zM11.727 24.027h5.331v0.533c0 0.294-0.239 0.533-0.533 0.533h-4.264c-0.294 0-0.533-0.239-0.533-0.533v-0.533zM1.066 24.56c0-0.294 0.239-0.533 0.533-0.533h9.062v0.533c0 0.883 0.716 1.599 1.599 1.599h4.264c0.883 0 1.599-0.716 1.599-1.599v-0.533h9.062c0.294 0 0.533 0.239 0.533 0.533v2.132c0 0.294-0.239 0.533-0.533 0.533h-25.587c-0.294 0-0.533-0.239-0.533-0.533v-2.132z"></path>
</symbol>

<symbol id="icon-clock" viewBox="0 0 32 32">
<path fill="#212121" style="fill: var(--color5, #212121)" d="M31.297 15.301c-0.002-8.452-6.855-15.303-15.308-15.301s-15.303 6.855-15.301 15.308c0.001 6.658 4.307 12.551 10.649 14.576 0.061 0.019 0.124 0.029 0.187 0.029 0.126-0 0.245-0.035 0.346-0.095l-0.003 0.002c0.134-0.080 0.234-0.204 0.282-0.352l0.001-0.005 3.865-12.25c1.057-0.005 1.909-0.866 1.903-1.923s-0.866-1.909-1.923-1.903c-0.299 0.001-0.581 0.072-0.831 0.196l0.011-0.005-5.106-5.107c-0.253-0.245-0.657-0.238-0.902 0.016-0.239 0.247-0.239 0.639 0 0.886l5.103 5.109c-0.392 0.799-0.168 1.764 0.536 2.309l-3.683 11.673c-7.278-2.681-11.004-10.754-8.323-18.032s10.754-11.004 18.032-8.323c7.278 2.681 11.004 10.754 8.323 18.032-1.345 3.581-4.003 6.406-7.374 7.938l-0.088 0.036-0.398-1.874c-0.073-0.344-0.411-0.565-0.756-0.492-0.114 0.025-0.213 0.077-0.293 0.149l0.001-0.001-3.837 3.426c-0.263 0.234-0.287 0.637-0.052 0.9 0.076 0.085 0.174 0.149 0.283 0.184l4.899 1.563c0.335 0.108 0.694-0.077 0.802-0.412 0.019-0.058 0.031-0.126 0.031-0.195 0-0.047-0.005-0.092-0.015-0.136l0.001 0.004-0.391-1.839c5.664-2.388 9.342-7.942 9.329-14.089zM15.992 14.664c0.352 0 0.638 0.286 0.638 0.638s-0.286 0.638-0.638 0.638c-0.352 0-0.638-0.285-0.638-0.638s0.285-0.638 0.638-0.638zM18.093 29.528l2.184-1.948 0.603 2.84-2.787-0.892z"></path>
<path fill="#2196f3" style="fill: var(--color3, #2196f3)" d="M15.354 3.185v1.275c0 0.352 0.285 0.638 0.638 0.638s0.638-0.285 0.638-0.638v-1.275c0-0.352-0.286-0.638-0.638-0.638s-0.638 0.286-0.638 0.638zM3.876 14.664c-0.352 0-0.638 0.286-0.638 0.638s0.285 0.638 0.638 0.638h1.275c0.352 0 0.638-0.285 0.638-0.638s-0.285-0.638-0.638-0.638h-1.275zM28.108 15.939c0.352 0 0.638-0.285 0.638-0.638s-0.285-0.638-0.638-0.638h-1.275c-0.352 0-0.638 0.286-0.638 0.638s0.286 0.638 0.638 0.638h1.275z"></path>
</symbol>

<symbol id="icon-astronaut" viewBox="0 0 32 32">
<path fill="#2196f3" style="fill: var(--color3, #2196f3)" d="M31.974 4.524c-0.064-0.191-0.227-0.332-0.427-0.362l-0.003-0-1.91-0.278-0.855-1.731c-0.179-0.365-0.777-0.365-0.956 0l-0.855 1.731-1.91 0.278c-0.203 0.030-0.367 0.171-0.43 0.359l-0.001 0.004c-0.062 0.193-0.011 0.405 0.135 0.547l1.383 1.348-0.326 1.903c-0.034 0.2 0.048 0.402 0.212 0.522 0.087 0.064 0.196 0.102 0.313 0.102 0.091 0 0.177-0.023 0.252-0.063l-0.003 0.001 1.709-0.899 1.709 0.899c0.078 0.041 0.164 0.061 0.249 0.061 0.11 0 0.221-0.034 0.314-0.102 0.134-0.098 0.22-0.254 0.22-0.431 0-0.032-0.003-0.063-0.008-0.094l0 0.003-0.326-1.903 1.383-1.348c0.099-0.097 0.161-0.233 0.161-0.382 0-0.059-0.009-0.115-0.027-0.168l0.001 0.004zM29.511 5.851c-0.099 0.097-0.161 0.232-0.161 0.382 0 0.032 0.003 0.063 0.008 0.094l-0-0.003 0.191 1.114-1-0.526c-0.072-0.039-0.157-0.061-0.248-0.061-0 0-0 0-0.001 0h0c-0.085 0-0.17 0.020-0.249 0.061l-1.001 0.526 0.191-1.114c0.005-0.027 0.008-0.058 0.008-0.090 0-0.15-0.062-0.285-0.161-0.382l-0.81-0.789 1.119-0.163c0.177-0.026 0.324-0.137 0.4-0.289l0.001-0.003 0.5-1.013 0.5 1.013c0.078 0.157 0.228 0.267 0.402 0.292l1.119 0.163-0.809 0.789zM26.134 20.522h-1.067v1.067h1.067v-1.067zM26.134 22.656h-1.067v1.067h1.067v-1.067zM27.2 21.589h-1.067v1.067h1.067v-1.067zM25.067 21.589h-1.067v1.067h1.067v-1.067zM22.4 26.389h-1.067v1.067h1.067v-1.067zM22.4 28.522h-1.067v1.067h1.067v-1.067zM23.467 27.456h-1.067v1.067h1.067v-1.067zM21.333 27.456h-1.067v1.067h1.067v-1.067zM16 24.256h-1.067v1.067h1.067v-1.067zM16 26.389h-1.067v1.067h1.067v-1.067zM17.067 25.322h-1.067v1.067h1.067v-1.067zM14.933 25.322h-1.067v1.067h1.067v-1.067zM5.867 6.122h-1.067v1.067h1.067v-1.067zM5.867 8.255h-1.067v1.067h1.067v-1.067z"></path>
<path fill="#2196f3" style="fill: var(--color3, #2196f3)" d="M6.933 7.189h-1.067v1.067h1.067v-1.067zM4.8 7.189h-1.067v1.067h1.067v-1.067z"></path>
<path fill="#212121" style="fill: var(--color5, #212121)" d="M24.715 14.159c-0.287-0.388-0.709-0.637-1.188-0.705-0.481-0.068-0.956 0.058-1.34 0.352l-1.252 0.96-1.898 1.417-1.358-0.541c2.421-1.086 4.114-3.508 4.114-6.32 0-3.823-3.123-6.933-6.961-6.933s-6.961 3.11-6.961 6.933c0 1.386 0.414 2.674 1.12 3.758l-2.769-0.024c-0.009 0-0.015 0.004-0.023 0.005-0.056 0.003-0.109 0.014-0.159 0.032l0.004-0.001c-0.013 0.005-0.026 0.008-0.038 0.013-0.006 0.003-0.013 0.003-0.019 0.006l-3.233 1.596c-0.001 0-0.001 0-0.001 0.001l-1.893 0.911c-0.024 0.011-0.045 0.023-0.064 0.036l0.001-0.001c-0.755 0.502-1.012 1.489-0.598 2.295 0.22 0.429 0.595 0.745 1.056 0.889 0.161 0.052 0.347 0.083 0.539 0.083h0c0.29 0 0.577-0.071 0.839-0.211l1.388-0.738 2.264-1.169 1.357-0.008-5.442 5.416c-0.001 0.001-0.001 0.001-0.002 0.001l-1.339 1.333c-0.316 0.315-0.49 0.732-0.49 1.178s0.174 0.863 0.49 1.179c0.325 0.323 0.752 0.485 1.179 0.485s0.854-0.162 1.18-0.485l1.314-1.309 1.741-1.3 0.901 0.897-1.762 1.754c-0 0.001-0.001 0.001-0.002 0.001l-1.339 1.333c-0.316 0.315-0.49 0.732-0.49 1.178s0.174 0.863 0.49 1.179c0.325 0.323 0.753 0.485 1.18 0.485s0.855-0.162 1.18-0.485l3.482-3.467c0.001-0.001 0.001-0.001 0.001-0.002l1.010-1-0.004-0.004c0.006-0.006 0.015-0.009 0.022-0.015l5.166-5.658 3.471 0.494c0.022 0.003 0.048 0.005 0.073 0.005 0.001 0 0.001 0 0.002 0h-0c0.065 0 0.127-0.015 0.187-0.038 0.018-0.006 0.033-0.015 0.050-0.023 0.019-0.010 0.039-0.015 0.058-0.027l3.213-2.133c0.012-0.008 0.018-0.021 0.029-0.029 0.013-0.010 0.029-0.014 0.041-0.026l1.271-1.191c0.662-0.62 0.753-1.635 0.212-2.362zM2.13 17.77c-0.173 0.093-0.37 0.111-0.558 0.052-0.187-0.058-0.338-0.186-0.427-0.358-0.161-0.314-0.068-0.695 0.214-0.902l1.314-0.632 0.449 1.312-0.992 0.528zM5.628 15.942l-1.548 0.8-0.439-1.283 2.027-1.001-0.040 1.484zM20.727 9.322c0 0.918-0.219 1.785-0.599 2.559l-4.181-1.899c-0.044-0.573-0.341-1.075-0.788-1.388l1.464-4.86c2.378 0.756 4.105 2.974 4.105 5.588zM8.938 9.322c0-3.235 2.644-5.867 5.894-5.867 0.253 0 0.5 0.021 0.745 0.052l-1.432 4.754c-0.019-0.001-0.037-0.006-0.057-0.006-1.033 0-1.873 0.837-1.873 1.867s0.84 1.867 1.873 1.867c0.694 0 1.294-0.383 1.618-0.945l3.862 1.755c-1.075 1.446-2.795 2.39-4.737 2.39-3.25 0-5.894-2.632-5.894-5.867zM14.894 10.122c0 0.441-0.362 0.8-0.806 0.8s-0.806-0.359-0.806-0.8c0-0.441 0.362-0.8 0.806-0.8s0.806 0.359 0.806 0.8zM2.465 25.146c-0.236 0.234-0.619 0.234-0.854 0.001-0.114-0.114-0.176-0.263-0.176-0.423s0.062-0.309 0.176-0.421l0.962-0.958 0.851 0.848-0.959 0.955zM5.679 28.88c-0.236 0.234-0.619 0.235-0.855 0.001-0.114-0.114-0.176-0.263-0.176-0.423s0.062-0.309 0.176-0.421l0.963-0.959 0.852 0.848-0.96 0.955zM9.16 25.411c-0.001 0-0.001 0-0.002 0.001l-1.765 1.76-0.852-0.848 1.763-1.756c0.001-0.001 0.001-0.001 0.002-0.001 0.040-0.040 0.065-0.088 0.090-0.135 0.007-0.014 0.020-0.026 0.026-0.040 0.017-0.041 0.019-0.085 0.026-0.129 0.003-0.025 0.014-0.047 0.014-0.073 0-0.036-0.013-0.070-0.020-0.106-0.006-0.032-0.006-0.065-0.019-0.095-0.020-0.050-0.055-0.094-0.091-0.138-0.010-0.012-0.014-0.027-0.025-0.038h-0.001c-0.001-0-0.001-0.002-0.001-0.002l-1.607-1.6c-0.017-0.017-0.039-0.024-0.058-0.038-0.028-0.022-0.055-0.042-0.087-0.058-0.030-0.015-0.061-0.024-0.093-0.033-0.034-0.010-0.067-0.017-0.103-0.020-0.033-0.002-0.063 0.001-0.095 0.005-0.036 0.004-0.069 0.009-0.104 0.020-0.034 0.011-0.063 0.027-0.094 0.045-0.020 0.011-0.042 0.015-0.061 0.029l-1.773 1.324-0.901-0.897 2.399-2.386 4.361 4.289-0.928 0.919zM15.979 18.394c-0.015-0.002-0.030 0.004-0.045 0.003-0.008-0-0.017-0.001-0.026-0.001-0.031 0-0.062 0.003-0.092 0.008l0.003-0c-0.030 0.005-0.059 0.011-0.088 0.021-0.034 0.012-0.065 0.028-0.097 0.047s-0.059 0.039-0.084 0.062l0-0c-0.013 0.011-0.028 0.017-0.040 0.029l-4.698 5.146-4.328-4.257 2.833-2.818c0.209-0.208 0.21-0.546 0.002-0.755-0.105-0.105-0.243-0.157-0.381-0.156v-0.001l-2.219 0.013 0.028-1.607 3.104 0.027c1.265 1.294 3.029 2.101 4.981 2.101 0.437 0 0.864-0.045 1.279-0.123 0.040 0.032 0.079 0.065 0.13 0.085l2.41 0.96 0.331 1.644-3.003-0.427zM20.020 18.572l-0.313-1.558 1.446-1.080 0.947 1.257-2.080 1.381zM23.774 15.741l-0.838 0.785-0.931-1.236 0.831-0.637c0.155-0.119 0.351-0.168 0.543-0.143 0.193 0.027 0.364 0.128 0.48 0.284 0.217 0.292 0.18 0.699-0.085 0.947z"></path>
<path fill="#212121" style="fill: var(--color5, #212121)" d="M13.602 18.544l-2.143-2.133c-0.207-0.207-0.545-0.207-0.753 0l-2.142 2.133c-0.097 0.097-0.157 0.23-0.157 0.378v0c0 0.142 0.056 0.278 0.157 0.378l2.142 2.133c0.104 0.103 0.241 0.155 0.377 0.155s0.273-0.052 0.376-0.155l2.143-2.133c0.097-0.097 0.157-0.23 0.157-0.378v-0c0-0.142-0.057-0.278-0.157-0.378zM11.083 20.303l-1.387-1.381 1.387-1.381 1.387 1.381-1.387 1.381zM17.164 5.071l-0.258 1.036c0.071 0.018 1.738 0.452 1.738 2.149h1.067c-0-2.017-1.666-2.965-2.547-3.185zM19.711 9.322h-1.067v1.067h1.067v-1.067z"></path>
</symbol>

<symbol id="icon-antenna" viewBox="0 0 32 32">
<path fill="#212121" style="fill: var(--color5, #212121)" d="M30.773 22.098l-8.443-8.505 0.937-4.615c0.225 0.090 0.485 0.144 0.758 0.146h0.007c1.192 0.014 2.17-0.941 2.184-2.133s-0.941-2.17-2.133-2.184c-1.192-0.014-2.17 0.941-2.184 2.133-0 0.008-0 0.017-0 0.026 0 0.259 0.046 0.508 0.13 0.738l-0.005-0.015-4.96 0.605-8.091-8.133c-0.096-0.098-0.229-0.159-0.376-0.16h-0c-0.146 0.001-0.278 0.060-0.373 0.155l-1.513 1.504c-0.208 0.208-0.208 0.546 0 0.754l0.814 0.826c-3.153 5.798-2.129 12.978 2.519 17.663 0.043 0.041 0.092 0.074 0.146 0.098-0.032 0.164-0.051 0.353-0.052 0.546v6.188h-6.4c-1.472 0.002-2.665 1.195-2.667 2.667v1.067c0 0.295 0.239 0.533 0.533 0.533h24.533c0.295 0 0.533-0.239 0.533-0.533v-1.067c-0.002-1.472-1.195-2.665-2.667-2.667h-6.4v-2.742c0.915 0.201 1.968 0.317 3.047 0.32h0.002c2.58-0.003 5.005-0.663 7.117-1.822l-0.077 0.039 0.818 0.823c0.099 0.101 0.235 0.159 0.377 0.16 0.146-0.001 0.278-0.060 0.373-0.155l1.513-1.504c0.208-0.208 0.208-0.546 0-0.754zM23.28 6.233c0.418-0.415 1.093-0.414 1.508 0.004s0.414 1.093-0.004 1.508c-0.193 0.192-0.459 0.31-0.752 0.31-0 0-0 0-0 0h-0.003c-0.589-0.003-1.064-0.483-1.061-1.072 0.002-0.294 0.122-0.559 0.314-0.751l0-0h-0.002zM22.024 9.738l-0.598 2.946-1.175-1.182 1.774-1.763zM21.419 8.836l-1.92 1.909-1.485-1.493 3.405-0.415zM24.004 28.8c0.884 0 1.6 0.716 1.6 1.6v0.533h-23.467v-0.533c0-0.884 0.716-1.6 1.6-1.6h20.267zM16.537 26.667v1.067h-5.333v-1.067h5.333zM11.204 25.6v-4.053c0-1.294 1.196-2.347 2.667-2.347s2.667 1.053 2.667 2.347v4.053h-5.333zM17.604 23.904v-2.357c0-1.882-1.675-3.413-3.733-3.413-0.017-0-0.038-0-0.058-0-1.353 0-2.54 0.707-3.213 1.771l-0.009 0.016c-4.058-4.274-4.971-10.645-2.279-15.887l18.602 18.708c-1.823 0.947-3.98 1.502-6.266 1.502-1.079 0-2.128-0.124-3.136-0.357l0.093 0.018zM28.893 23.22l-21.057-21.181 0.755-0.752 7.935 7.98c0.004 0 0.006 0.007 0.010 0.010l13.115 13.191-0.757 0.752z"></path>
<path fill="#2196f3" style="fill: var(--color3, #2196f3)" d="M13.876 20.267h-0.005c-0.884-0.001-1.601 0.714-1.602 1.598s0.714 1.601 1.598 1.602h0.005c0.884 0.001 1.601-0.714 1.602-1.598s-0.714-1.601-1.598-1.602zM14.249 22.245c-0.096 0.096-0.229 0.155-0.376 0.155-0.001 0-0.001 0-0.002 0h0c-0.295-0.002-0.532-0.242-0.531-0.536 0.002-0.292 0.238-0.529 0.53-0.531h0c0.295 0.002 0.532 0.241 0.53 0.536-0.001 0.147-0.061 0.279-0.157 0.375l-0 0h0.005z"></path>
</symbol>

</defs>
</svg>
